<svg xmlns="http://www.w3.org/2000/svg" width="20" height="20" fill="none" viewBox="0 0 20 20"><path fill="#fff" fill-rule="evenodd" d="M11.0176 0C15.908 0.2 19.7006 4.1 20 8.9V9.4C20 10.9 19.7006 12.4 19.002 13.7C17.4051 16.9 14.1115 18.9 10.5186 18.9C9.12134 18.9 7.82388 18.6 6.62623 18.1L1.33661 19.9C1.2368 20 1.137 20 1.0372 20C0.737783 20 0.538175 19.9 0.238762 19.7C0.0391537 19.5 -0.0606505 19.1 0.0391537 18.7L1.83563 13.4C1.33661 12.2 1.0372 10.8 1.0372 9.5C1.0372 5.9 3.03328 2.6 6.32682 1C7.62428 0.3 9.02153 0 10.5186 0H11.0176ZM17.2055 12.9C17.7045 11.8 18.0039 10.7 18.0039 9.5V9C17.7045 5.2 14.7104 2.2 10.9178 2H10.5186C9.42075 2 8.2231 2.3 7.22506 2.8C4.63015 4.1 3.03328 6.6 3.03328 9.5C3.03328 10.6 3.33269 11.8 3.83171 12.8C4.03132 13.1 4.03132 13.3 3.93152 13.6L2.63406 17.4L6.42662 16.1C6.72604 16.1 7.02545 16.1 7.22506 16.2C8.2231 16.7 9.42075 17 10.5186 17C13.4129 17 15.908 15.5 17.2055 12.9Z" clip-rule="evenodd"/></svg>