<svg xmlns="http://www.w3.org/2000/svg" width="16" height="16" fill="none" viewBox="0 0 16 16"><path fill="#fff" fill-rule="evenodd" d="M16 0.723982C16 0.651584 16 0.579186 15.9273 0.506787V0.434389C15.9273 0.361991 15.8545 0.289593 15.7818 0.217195C15.7455 0.180995 15.7091 0.162896 15.6727 0.144796C15.6364 0.126697 15.6 0.108597 15.5636 0.0723982H15.4909C15.4182 0.0723982 15.3455 0.0723982 15.2727 0V0.0723982C15.2 0.0723982 15.1273 0.0723982 15.0545 0.144796L0.509091 5.21267C0.218182 5.28507 0 5.50226 0 5.86425C0 6.15385 0.145455 6.44344 0.436364 6.58824L6.69091 9.33937L9.45455 15.5656C9.6 15.8552 9.81818 16 10.1091 16C10.4 16 10.6909 15.7828 10.7636 15.4932L15.8545 1.01357C16 0.941177 16 0.868778 16 0.723982ZM12.5091 2.53391L7.12728 7.89138L2.69092 5.93663L12.5091 2.53391ZM8.14546 8.90496L10.1091 13.3213L13.5273 3.5475L8.14546 8.90496Z" clip-rule="evenodd"/></svg>