<svg xmlns="http://www.w3.org/2000/svg" width="18" height="14" fill="none" viewBox="0 0 18 14"><path fill="#fff" fill-rule="evenodd" d="M15.6667 0H3.22222C1.9 0 0.888885 1.01111 0.888885 2.33333V11.6667C0.888885 12.9889 1.9 14 3.22222 14H15.6667C16.9889 14 18 12.9889 18 11.6667V2.33333C18 1.01111 16.9889 0 15.6667 0ZM3.22222 1.55556H15.6667C15.9778 1.55556 16.2111 1.71111 16.3667 2.02222L9.44445 6.84444L2.52222 2.02222C2.67778 1.71111 2.91111 1.55556 3.22222 1.55556ZM2.44444 11.6667C2.44444 12.1334 2.75555 12.4445 3.22222 12.4445H15.6667C16.1333 12.4445 16.4444 12.1334 16.4444 11.6667V3.81113L9.91111 8.40002C9.75555 8.4778 9.6 8.55557 9.44444 8.55557C9.28889 8.55557 9.13333 8.4778 8.97777 8.40002L2.44444 3.81113V11.6667Z" clip-rule="evenodd"/></svg>